USFL
nRows=125
nColumns=2
inDegrees=yes
endheader
time	med_gas_r	
3.0625	 50.266351	
3.125	 50.227271	
3.1875	 50.325382	
3.25	 50.387657	
3.3125	 50.386391	
3.375	 50.410438	
3.4375	 50.420480	
3.5	 50.478462	
3.5625	 50.366849	
3.625	 50.357965	
3.6875	 50.350949	
3.75	 50.383572	
3.8125	 50.419166	
3.875	 50.454582	
3.9375	 50.436928	
4	 50.396414	
4.0625	 50.354679	
4.125	 50.350075	
4.1875	 50.368023	
4.25	 50.417428	
4.3125	 50.367653	
4.375	 50.298989	
4.4375	 50.248137	
4.5	 50.302461	
4.5625	 50.318026	
4.625	 50.384810	
4.6875	 50.379612	
4.75	 50.337953	
4.8125	 50.283818	
4.875	 50.342234	
4.9375	 50.185394	
5	 51.078257	
5.0625	 50.903821	
5.125	 47.191964	
5.1875	 46.964238	
5.25	 46.955301	
5.3125	 46.794074	
5.375	 46.727725	
5.4375	 46.976021	
5.5	 47.104967	
5.5625	 45.288438	
5.625	 42.236555	
5.6875	 42.059132	
5.75	 41.921801	
5.8125	 41.807150	
5.875	 41.675585	
5.9375	 41.598286	
6	 41.598286	
6.0625	 41.632429	
6.125	 42.169132	
6.1875	 42.042793	
6.25	 42.161066	
6.3125	 42.040102	
6.375	 41.808398	
6.4375	 41.521115	
6.5	 41.383927	
6.5625	 41.301583	
6.625	 41.181710	
6.6875	 41.203316	
6.75	 41.531513	
6.8125	 41.732113	
6.875	 41.805776	
6.9375	 41.731715	
7	 41.492211	
7.0625	 41.351277	
7.125	 41.261457	
7.1875	 41.298721	
7.25	 41.424116	
7.3125	 41.741766	
7.375	 42.148204	
7.4375	 42.313254	
7.5	 42.575748	
7.5625	 43.139601	
7.625	 43.281347	
7.6875	 43.329385	
7.75	 43.347817	
7.8125	 43.313511	
7.875	 43.074687	
7.9375	 42.604038	
8	 42.307458	
8.0625	 42.084979	
8.125	 41.911844	
8.1875	 42.077009	
8.25	 42.155561	
8.3125	 42.333984	
8.375	 42.330043	
8.4375	 42.216416	
8.5	 41.962848	
8.5625	 41.929604	
8.625	 41.927496	
8.6875	 41.922227	
8.75	 41.837885	
8.8125	 41.756467	
8.875	 41.718135	
8.9375	 41.557339	
9	 41.446821	
9.0625	 41.061149	
9.125	 40.835624	
9.1875	 40.669946	
9.25	 40.455141	
9.3125	 40.403360	
9.375	 40.425405	
9.4375	 40.545159	
9.5	 40.666153	
9.5625	 40.762965	
9.625	 41.036136	
9.6875	 41.289705	
9.75	 41.231725	
9.8125	 43.879525	
9.875	 45.927224	
9.9375	 48.456953	
10	 48.371770	
10.0625	 49.280757	
10.125	 50.426090	
10.1875	 50.220548	
10.25	 50.092567	
10.3125	 49.935293	
10.375	 49.997997	
10.4375	 50.061512	
10.5	 49.965475	
10.5625	 49.800241	
10.625	 49.912817	
10.6875	 49.939194	
10.75	 50.025044	
10.8125	 50.157537	
